<svg width="64" height="64" viewBox="0 0 64 64" fill="none" xmlns="http://www.w3.org/2000/svg">
<path d="M29.2001 33.8668L25.3334 30.0668C24.8446 29.5779 24.2339 29.3334 23.5014 29.3334C22.769 29.3334 22.1352 29.6001 21.6001 30.1334C21.1112 30.6223 20.8668 31.2445 20.8668 32.0001C20.8668 32.7557 21.1112 33.3779 21.6001 33.8668L27.3334 39.6001C27.8668 40.1334 28.489 40.4001 29.2001 40.4001C29.9112 40.4001 30.5334 40.1334 31.0668 39.6001L42.4001 28.2668C42.9334 27.7334 43.1886 27.1112 43.1655 26.4001C43.1423 25.689 42.8872 25.0668 42.4001 24.5334C41.8668 24.0001 41.2339 23.7228 40.5014 23.7014C39.769 23.6801 39.1352 23.9352 38.6001 24.4668L29.2001 33.8668ZM21.7334 58.0001L17.8668 51.4668L10.5334 49.8668C9.86678 49.7334 9.33345 49.3894 8.93345 48.8348C8.53345 48.2801 8.37789 47.6685 8.46678 47.0001L9.20011 39.4668L4.20011 33.7334C3.75567 33.2445 3.53345 32.6668 3.53345 32.0001C3.53345 31.3334 3.75567 30.7557 4.20011 30.2668L9.20011 24.5334L8.46678 17.0001C8.37789 16.3334 8.53345 15.7219 8.93345 15.1654C9.33345 14.609 9.86678 14.265 10.5334 14.1334L17.8668 12.5334L21.7334 6.0001C22.089 5.42233 22.5779 5.03299 23.2001 4.8321C23.8223 4.63122 24.4446 4.66499 25.0668 4.93344L32.0001 7.86677L38.9334 4.93344C39.5557 4.66677 40.1779 4.63299 40.8001 4.8321C41.4223 5.03122 41.9112 5.42055 42.2668 6.0001L46.1334 12.5334L53.4668 14.1334C54.1334 14.2668 54.6668 14.6117 55.0668 15.1681C55.4668 15.7246 55.6223 16.3352 55.5334 17.0001L54.8001 24.5334L59.8001 30.2668C60.2446 30.7557 60.4668 31.3334 60.4668 32.0001C60.4668 32.6668 60.2446 33.2445 59.8001 33.7334L54.8001 39.4668L55.5334 47.0001C55.6223 47.6668 55.4668 48.2783 55.0668 48.8348C54.6668 49.3912 54.1334 49.7352 53.4668 49.8668L46.1334 51.4668L42.2668 58.0001C41.9112 58.5779 41.4223 58.9672 40.8001 59.1681C40.1779 59.369 39.5557 59.3352 38.9334 59.0668L32.0001 56.1334L25.0668 59.0668C24.4446 59.3334 23.8223 59.3672 23.2001 59.1681C22.5779 58.969 22.089 58.5797 21.7334 58.0001ZM25.2001 53.2001L32.0001 50.2668L38.9334 53.2001L42.6668 46.8001L50.0001 45.0668L49.3334 37.6001L54.2668 32.0001L49.3334 26.2668L50.0001 18.8001L42.6668 17.2001L38.8001 10.8001L32.0001 13.7334L25.0668 10.8001L21.3334 17.2001L14.0001 18.8001L14.6668 26.2668L9.73345 32.0001L14.6668 37.6001L14.0001 45.2001L21.3334 46.8001L25.2001 53.2001Z" fill="url(#paint0_linear_97_515)"/>
<defs>
<linearGradient id="paint0_linear_97_515" x1="3.53345" y1="32.0001" x2="60.4668" y2="32.0001" gradientUnits="userSpaceOnUse">
<stop stop-color="#1CA5EC"/>
<stop offset="1" stop-color="#E45162"/>
</linearGradient>
</defs>
</svg>
